<svg id="Camada_1" data-name="Camada 1" xmlns="http://www.w3.org/2000/svg" viewBox="0 0 603.5 625.63"><defs><style>.cls-1,.cls-2{fill:none;stroke-miterlimit:10;stroke-width:8px;}.cls-1{stroke:#707070;}.cls-2{stroke:#000;}.cls-3{fill:#707070;}.cls-4{fill:#fff;}</style></defs><title>camera</title><line class="cls-1" x1="4" y1="254.69" x2="4" y2="502.69"/><line class="cls-1" x1="4" y1="152.69" x2="4" y2="234.69"/><path class="cls-1" d="M19.5,131.5v-38s-1-58,55-60h82" transform="translate(-15.5 -8.81)"/><line class="cls-1" x1="176.5" y1="24.19" x2="427.5" y2="24.19"/><polyline class="cls-1" points="412.5 2.19 427.5 25.18 412.5 42.19"/><line class="cls-1" x1="599.5" y1="122.19" x2="599.5" y2="370.19"/><line class="cls-1" x1="599.5" y1="390.19" x2="599.5" y2="473.19"/><path class="cls-2" d="M615,512" transform="translate(-15.5 -8.81)"/><path class="cls-1" d="M615,511v38s-1,61-61,61H479" transform="translate(-15.5 -8.81)"/><line class="cls-1" x1="176.5" y1="601.19" x2="427.5" y2="601.19"/><polyline class="cls-1" points="190.5 583.18 173.5 601.18 190.5 623.18"/><ellipse class="cls-3" cx="302.5" cy="317.69" rx="199" ry="189.5"/><path class="cls-4" d="M420.84,263.7H399.07l-5-22.61a20.79,20.79,0,0,0-20.42-16.4H298a20.81,20.81,0,0,0-20.43,16.4l-5,22.61h-5.17v-9.65a9.86,9.86,0,0,0-9.85-9.85H225.71a9.86,9.86,0,0,0-9.86,9.85v9.65h-.69A16.18,16.18,0,0,0,199,279.86V389.28a16.18,16.18,0,0,0,16.16,16.16h74.93a84.22,84.22,0,0,0,91.5,0h39.25A16.18,16.18,0,0,0,437,389.28V279.86A16.18,16.18,0,0,0,420.84,263.7ZM286.69,243.1A11.56,11.56,0,0,1,298,234h75.6A11.56,11.56,0,0,1,385,243.1l4.56,20.6h-8a84.22,84.22,0,0,0-91.5,0h-8Zm-61.54,11a.56.56,0,0,1,.56-.56h31.88a.56.56,0,0,1,.56.56v9.65h-33Zm11.18,142.09V345.65a4.65,4.65,0,0,0-9.3,0v50.49H215.16a6.86,6.86,0,0,1-6.86-6.86V279.86a6.86,6.86,0,0,1,6.86-6.86h63a84.23,84.23,0,0,0,0,123.14Zm142.43,0a75,75,0,1,1,32.17-61.57A74.8,74.8,0,0,1,378.76,396.14Zm48.94-6.86a6.86,6.86,0,0,1-6.86,6.86H393.47a84.23,84.23,0,0,0,0-123.14h27.37a6.86,6.86,0,0,1,6.86,6.86V389.28Z" transform="translate(-15.5 -8.81)"/><path class="cls-4" d="M335.84,273.54a61,61,0,1,0,14.5,120.32,4.65,4.65,0,1,0-2.2-9,51.74,51.74,0,1,1,30.55-21.27,4.65,4.65,0,0,0,7.7,5.22,61,61,0,0,0-50.55-95.24Z" transform="translate(-15.5 -8.81)"/><path class="cls-4" d="M231.68,289.06A17.31,17.31,0,1,0,249,306.37,17.34,17.34,0,0,0,231.68,289.06Zm0,25.32a8,8,0,1,1,8-8A8,8,0,0,1,231.68,314.38Z" transform="translate(-15.5 -8.81)"/><path class="cls-4" d="M373.36,379.4a4.84,4.84,0,0,0-.27-.87,4.69,4.69,0,0,0-.42-.8,4.9,4.9,0,0,0-.58-.7,4.39,4.39,0,0,0-.71-.58,4.11,4.11,0,0,0-.8-.43,4.39,4.39,0,0,0-.87-.27,4.65,4.65,0,0,0-1.82,0,4.39,4.39,0,0,0-.87.27,4.11,4.11,0,0,0-.8.43,4.87,4.87,0,0,0-.71.58,4.25,4.25,0,0,0-.57.7,4.11,4.11,0,0,0-.43.8,4.84,4.84,0,0,0-.27.87,4.68,4.68,0,0,0-.09.91,4.6,4.6,0,0,0,.09.91,4.39,4.39,0,0,0,.27.87,4.11,4.11,0,0,0,.43.8,3.94,3.94,0,0,0,.57.71,5.62,5.62,0,0,0,.71.58,4.69,4.69,0,0,0,.8.42,4.39,4.39,0,0,0,.87.27,4.65,4.65,0,0,0,1.82,0,4.39,4.39,0,0,0,.87-.27,4.69,4.69,0,0,0,.8-.42,5,5,0,0,0,.71-.58,4.66,4.66,0,0,0,1.27-4.2Z" transform="translate(-15.5 -8.81)"/></svg>