<svg id="Camada_1" data-name="Camada 1" xmlns="http://www.w3.org/2000/svg" xmlns:xlink="http://www.w3.org/1999/xlink" viewBox="0 0 1117.53 762.21"><defs><style>.cls-1{fill:none;}.cls-2{clip-path:url(#clip-path);}.cls-3{clip-path:url(#clip-path-2);}</style><clipPath id="clip-path" transform="translate(-13 -13)"><rect class="cls-1" x="231.73" y="109.22" width="557.6" height="277.71" transform="translate(1069.32 148.42) rotate(143.97)"/></clipPath><clipPath id="clip-path-2" transform="translate(-13 -13)"><rect class="cls-1" x="367.95" y="356.87" width="541.12" height="269.5" transform="translate(-166.96 466.88) rotate(-35.83)"/></clipPath></defs><title>laptip</title><path d="M1003.06,66.82H140.48a27.66,27.66,0,0,0-27.63,27.63V604.36A27.66,27.66,0,0,0,140.48,632h862.58a27.66,27.66,0,0,0,27.63-27.63V94.45a27.66,27.66,0,0,0-27.63-27.63Zm3.71,537.54a3.71,3.71,0,0,1-3.71,3.71H140.48a3.72,3.72,0,0,1-3.71-3.71V94.45a3.71,3.71,0,0,1,3.71-3.71h862.58a3.72,3.72,0,0,1,3.71,3.71Z" transform="translate(-13 -13)"/><path d="M1112.6,649.93h-28.09V81.33A68.41,68.41,0,0,0,1016.17,13H127.37A68.41,68.41,0,0,0,59,81.33v568.6H30.94A17.94,17.94,0,0,0,13,667.87v49.28a58.12,58.12,0,0,0,58.06,58.06H1072.48a58.12,58.12,0,0,0,58-58.06V667.87A17.92,17.92,0,0,0,1112.6,649.93ZM94.91,81.33a32.49,32.49,0,0,1,32.45-32.45h888.81a32.49,32.49,0,0,1,32.45,32.45v568.6H94.91V81.33ZM519.14,685.81H624.39v9.38a7.63,7.63,0,0,1-7.62,7.62h-90a7.63,7.63,0,0,1-7.62-7.62v-9.38Zm575.52,31.35a22.2,22.2,0,0,1-22.18,22.17H71.06a22.2,22.2,0,0,1-22.18-22.17V685.81H495.23v9.38a31.57,31.57,0,0,0,31.53,31.54h90a31.57,31.57,0,0,0,31.53-31.54v-9.38h446.35v31.35Z" transform="translate(-13 -13)"/><g class="cls-2"><path d="M371.82,259c-44.13,64.38-27.44,168.62,10.67,234,19,32.7,38.55,62.23,68.29,64.56.56.05,1.12.08,1.7.1,14,.54,24.45-3,34.54-6.37,11.32-3.81,23-7.75,40.82-6.36,16.91,1.32,27.34,6.84,37.42,12.17s20.18,10.69,35.86,11.63c33.55,2,56.47-26.44,76.69-51.52a254.2,254.2,0,0,0,36.71-62.33l.16-.4a3.77,3.77,0,0,0-1.64-4.77l-.27-.14c-5.71-2.88-55.66-29.88-51.3-92.49,3.47-50.87,44.9-74.71,53.17-79l.38-.2a3.79,3.79,0,0,0,1.49-5.21c-24-41.84-65.17-51.09-81.86-53.12-2.41-.43-4.91-.75-7.43-.95-19.67-1.54-39.1,4.42-54.71,9.2-10.77,3.31-20.08,6.16-26.3,5.67-7-.55-15.79-4.86-26-9.85-13.62-6.68-29.06-14.25-45.93-15.57l-1.19-.08C433.85,205.49,395,225,371.82,259Z" transform="translate(-13 -13)"/><path d="M643.24,110.24c-23.83-.9-53.46,11.49-72,30.11C555.4,156,539.08,182.83,540.6,211.29a3.76,3.76,0,0,0,3.18,3.53c1.6.26,3.23.45,4.86.58,23.22,1.81,49.28-9.07,68-28.42,19.71-20.44,31-47.76,30.23-73.09A3.8,3.8,0,0,0,643.24,110.24Z" transform="translate(-13 -13)"/></g><g class="cls-3"><path d="M450.62,371.28h-6.53a5.88,5.88,0,0,0-5.88,5.88v35.66a5.88,5.88,0,0,0,5.88,5.88h6.36c14.71,0,24.22-9.31,24.22-23.71C474.67,380.81,465,371.28,450.62,371.28ZM450,406.94V383c8.91,0,12.94,4.36,12.94,11.95C462.91,402.79,458.78,406.94,450,406.94Z" transform="translate(-13 -13)"/><path d="M709.53,406.53H686.31V353.09a5.89,5.89,0,0,0-5.88-5.89H651.15a5.89,5.89,0,0,0-5.88,5.89v53.72c-1.27-.43.09-.31-25.15-.31V353.09a5.89,5.89,0,0,0-5.88-5.89H585a5.89,5.89,0,0,0-5.89,5.89v17l-14.56-11.45a5.91,5.91,0,0,0-5.51-1,5.88,5.88,0,0,0-2.22-5.12L540.5,339.75a5.87,5.87,0,0,0-7.27,0l-38.41,30.18a48.39,48.39,0,0,0-41.28-22.73h-37.6a5.89,5.89,0,0,0-5.89,5.89v83.82a5.89,5.89,0,0,0,5.89,5.88h37.6a48.34,48.34,0,0,0,41.29-22.73c41.59,32.71,39.23,31.46,42,31.46s.42,1.27,42.24-31.63v17a5.89,5.89,0,0,0,5.89,5.88c63.36,0,60,.56,62.27-1.47,2.31,2-1,1.47,62.27,1.47a5.88,5.88,0,0,0,5.88-5.88V412.41A5.88,5.88,0,0,0,709.53,406.53Zm-72,24.52H590.87V407.78a5.88,5.88,0,0,0-9.52-4.62l-44.48,35L496.5,406.41a5.89,5.89,0,0,0-9.07,2.36A36.4,36.4,0,0,1,453.54,431H421.82V359h31.72a36.35,36.35,0,0,1,33.84,22.17,5.89,5.89,0,0,0,9.1,2.45l40.38-31.74,6.8,5.35-34.43,27.07a5.88,5.88,0,0,0,0,9.24l7.72,6.08a5.87,5.87,0,0,0,7.27,0l36.68-28.84,6.79,5.34-34.42,27.07a5.87,5.87,0,0,0-2.25,4.62c0,3.64,2.15,4.55,10,10.7a5.86,5.86,0,0,0,7.26,0l40.36-31.68a5.89,5.89,0,0,0,2.25-4.63V359h17.49v53.41a5.88,5.88,0,0,0,5.88,5.88h23.25Zm66.16,0H657V359h17.52v53.44a5.88,5.88,0,0,0,5.88,5.88h23.22Z" transform="translate(-13 -13)"/><path d="M688,269.47a179.68,179.68,0,1,0,0,254.1A179.57,179.57,0,0,0,688,269.47ZM561,564.43c-92.58,0-167.9-75.33-167.9-167.91S468.4,228.61,561,228.61s167.93,75.32,167.93,167.91S653.58,564.43,561,564.43Z" transform="translate(-13 -13)"/><path d="M755.84,402.86a5.85,5.85,0,0,0-6.24,5.5c-6.14,99.35-89,177.16-188.62,177.16-104.2,0-189-84.78-189-189,0-98.85,77.17-181.66,175.68-188.51a5.88,5.88,0,0,0-.82-11.74c-104.63,7.28-186.62,94.43-186.62,200.25a199.44,199.44,0,0,0,58.8,142c77.34,77.35,201.2,78.15,279.69,4.09a199.89,199.89,0,0,0,62.61-133.48A5.88,5.88,0,0,0,755.84,402.86Z" transform="translate(-13 -13)"/><path d="M761.14,380.83c-7.66-99-87.08-177.67-186-184.55a5.88,5.88,0,1,0-.81,11.73c92.66,6.45,167.93,81.13,175.1,173.72a5.88,5.88,0,0,0,11.73-.9Z" transform="translate(-13 -13)"/></g></svg>