<svg id="Camada_1" data-name="Camada 1" xmlns="http://www.w3.org/2000/svg" viewBox="0 0 1563.74 388.93"><defs><style>.cls-1{fill:#fff;}.cls-2{fill:#ef5ba1;}</style></defs><title>Logo</title><path class="cls-1" d="M829,216V173s5-40,19-53c0,0,16-19,36-20,0,0,22-6,43,5,0,0,15,7,21,21,0,0,8,18,9,29l2,15h-7s-3,1-1,3l19,13,20-15s1-2-1-2h-8s-3-38-14-54c0,0-8-22-44-34,0,0-20-7-53,0,0,0-16,3-35,21,0,0-19,19-25,51,0,0-4,19-4,26v78s2,33,5,38c0,0,7,26,16,36,0,0,15,21,30,27,0,0,22,12,58,6,0,0,34-6,49-31,0,0,8-7,15-39l2.13-20.25,6.11-.39s3.72-1.05.24-3.2l-18.2-12.07a2,2,0,0,0-1.55.35l-16.54,12s-3.15,2.27.83,2.93l6.09,0L957,289s-4,21-6,23c0,0-6,16-16,22,0,0-10,10-39,11,0,0-34,5-55-32,0,0-15-32-12-63Z" transform="translate(-25.26 -57)"/><path class="cls-2" d="M210.64,109a2,2,0,1,0-2.62,1.12A2,2,0,0,0,210.64,109Z" transform="translate(-25.26 -57)"/><path class="cls-2" d="M183.64,98A2,2,0,1,0,181,99.07,2,2,0,0,0,183.64,98Z" transform="translate(-25.26 -57)"/><path class="cls-2" d="M25.26,72.7v47H93.17l.38,233.06h37.8l-6.46-5.84,0,0a5,5,0,0,1-1.32-2.71h0V310.53a6.1,6.1,0,1,1,4.43,0v13.75l10.58-9.56V281.53a6.1,6.1,0,1,1,4.43,0v33.64h0a5,5,0,0,1-1.31,2.71l0,0-.14.12h0L128,330.25v13.47l10,9h12.27V233.5l-7.6-4.72h0l-.16-.1,0,0a5.08,5.08,0,0,1-1.78-2.43h0l-.08-.44c0-.06,0-.1,0-.1l-2.82-15.64a6.11,6.11,0,1,1,4.29-1.18L145,225l5.28,3.29V150.76l-9.06-8.7,0,0A5.06,5.06,0,0,1,140,139.3h0v-.56l.47-15.89a6.09,6.09,0,1,1,4.44-.26L144.36,139l.17.16,5.7,5.48v-25.2l20,.15,7.23-18a6.11,6.11,0,1,1,4.06,1.79L175,119.6l26.79.2,2.85-7.08a6.09,6.09,0,1,1,4.11,1.65l-2.2,5.47,12.88.09V72.7Z" transform="translate(-25.26 -57)"/><path class="cls-2" d="M140.23,116.94A2,2,0,1,0,142.3,115,2,2,0,0,0,140.23,116.94Z" transform="translate(-25.26 -57)"/><path class="cls-2" d="M138,202a2,2,0,1,0,2.34,1.62A2,2,0,0,0,138,202Z" transform="translate(-25.26 -57)"/><circle class="cls-2" cx="100.45" cy="247.8" r="2.01"/><circle class="cls-2" cx="115.58" cy="218.8" r="2.01"/><path class="cls-2" d="M328.26,343.13a2,2,0,1,0-1-2.67A2,2,0,0,0,328.26,343.13Z" transform="translate(-25.26 -57)"/><path class="cls-2" d="M329,242.59a2,2,0,1,0,2.83-.18A2,2,0,0,0,329,242.59Z" transform="translate(-25.26 -57)"/><path class="cls-2" d="M387.21,208.66s-3.49-35.15-28-52.51c0,0-35.74-31-91.15-5.2,0,0-39.57,22.22-40.08,75.83,0,0-7.15,67.92,13.28,92.68,0,0,17.87,38.56,76.85,37.54a98.12,98.12,0,0,0,42.17-10.14L356,343h0l-.14-.12,0,0a5,5,0,0,1-1.32-2.71h0V327.53a6.1,6.1,0,1,1,4.43,0v12.19l5.47,4.94a83.08,83.08,0,0,0,22.34-18.3l-21.28-33.7s-21.79,25-58.72,16.85c0,0-20.39-1.28-24.58-34.22l-.72-8.44h4.4l2.9-6.21a6.08,6.08,0,1,1,4.07,1.83l-2,4.38h89.28L377,264h0l-.14-.12,0,0a5,5,0,0,1-1.32-2.71h0v-8.91l-13-11.1v0a5,5,0,0,1-1.39-2.67h0V238a.75.75,0,0,1,0-.11l-.7-24a6.09,6.09,0,1,1,4.42-.34l.71,24.29,10,8.55V232.53a6.1,6.1,0,1,1,4.43,0v28.19l6.78,6.13h3S390.87,227.46,387.21,208.66Zm-62.41,137a6.08,6.08,0,1,1,4,1.82l-4.22,9.1-5,.21ZM282.11,228.83a83.76,83.76,0,0,1,3.32-23.49C290,188,303,187,303,187c17.88-4.08,25.79,6.9,25.79,6.9,8.68,11,7.15,35,7.15,35Zm53,19A6.09,6.09,0,0,1,324.72,242l-6-5.27-.08-.07-.34-.3,0,0a5,5,0,0,1-1.15-2.78h0l-.05-4.42,4.43.05.05,4.16,5.89,5.2a6.09,6.09,0,0,1,7.59,9.32Z" transform="translate(-25.26 -57)"/><path class="cls-2" d="M294.93,257.15a2,2,0,1,0-2.67,1A2,2,0,0,0,294.93,257.15Z" transform="translate(-25.26 -57)"/><circle class="cls-2" cx="331.45" cy="264.8" r="2.01"/><circle class="cls-2" cx="352.45" cy="169.8" r="2.01"/><path class="cls-2" d="M360.09,208.12a2,2,0,1,0,2-2.07A2,2,0,0,0,360.09,208.12Z" transform="translate(-25.26 -57)"/><path class="cls-2" d="M519.21,280.06s1,31.66-22.12,31.32c0,0-27.58,3.74-26.56-26.55,0,0-2-27.24-1-70.13,0,0,0-21.23,19.41-28.66,0,0,21.78-2.32,26.55,12.66,0,0,2.72,5.79,4.76,23.83h4.32v-22a6.1,6.1,0,1,1,4.43,0v19.58l8.41-8.22h0l.15-.15v-28.2a6.1,6.1,0,1,1,4.43,0v28.64h0a5,5,0,0,1-1.31,2.71l0,0-.14.12h0l-8.31,7.51h34.16l-1.88-2.71a6.09,6.09,0,1,1,3.56-2.49l2.65,4.11c.42-7.49,1.37-52.06-34.11-70.74,0,0-39.83-26.9-89.88,4.42,0,0-33.7,20.43-32.34,84.77,0,0-6.47,55.83,18.73,87.83,0,0,16,25.91,52.42,29.3a94.27,94.27,0,0,0,14.81-.55l-.63-2h0a5,5,0,0,1,.23-3l0,0,.23-.39.05-.09,6.07-10.45a6.1,6.1,0,1,1,3.83,2.22L504,353.3l.83,2.6c13.4-2,31.25-7.18,45-20.28L548,334h0l-.14-.12,0,0a5.15,5.15,0,0,1-1.22-2.21l-11.16-9.51v0a5,5,0,0,1-1.39-2.67h0V319a.75.75,0,0,1,0-.11L533.6,302a6.1,6.1,0,1,1,4.41-.51l.51,17.4,8,6.84v-9.2a6.1,6.1,0,1,1,4.43,0v14.19l1.91,1.73A61.4,61.4,0,0,0,558.7,325s15.69-27.58,12.1-44.6Z" transform="translate(-25.26 -57)"/><circle class="cls-2" cx="523.45" cy="253.8" r="2.01"/><path class="cls-2" d="M533.09,296.12a2,2,0,1,0,1.95-2.07A2,2,0,0,0,533.09,296.12Z" transform="translate(-25.26 -57)"/><path class="cls-2" d="M561.77,212.25a2,2,0,1,0,2.8.51A2,2,0,0,0,561.77,212.25Z" transform="translate(-25.26 -57)"/><path class="cls-2" d="M541.84,177.8a2,2,0,1,0-2,2A2,2,0,0,0,541.84,177.8Z" transform="translate(-25.26 -57)"/><path class="cls-2" d="M512.73,337.66a2,2,0,1,0-2.75.73A2,2,0,0,0,512.73,337.66Z" transform="translate(-25.26 -57)"/><circle class="cls-2" cx="501.45" cy="137.8" r="2.01"/><path class="cls-2" d="M714.55,240.07a2,2,0,1,0,2,2A2,2,0,0,0,714.55,240.07Z" transform="translate(-25.26 -57)"/><path class="cls-2" d="M728.65,259.44a2,2,0,1,0,.56,2.79A2,2,0,0,0,728.65,259.44Z" transform="translate(-25.26 -57)"/><circle class="cls-2" cx="708.45" cy="261.8" r="2.01"/><path class="cls-2" d="M756.59,223.08l-.19,3.74L740,212h0l-.14-.12,0,0a5.1,5.1,0,0,1-1.3-2.58h-.06V195.53a6.1,6.1,0,1,1,4.43,0v13.19l.18.16h0l13.39,12.31c-.15-7.86-.42-12.92-.83-13.56,0,0-1-49.78-34.46-62.55,0,0-20.68-9.19-41.37-1a83.66,83.66,0,0,0-25,18.38V57H599.72V352.74h55.15v-153s11.49-21.7,37-9.45c0,0,8.69,1.79,9.71,24.51v138h29.95V324.53a6.1,6.1,0,1,1,4.43,0v18.94l8.57-7.75V307.53a6.1,6.1,0,1,1,4.43,0v28.64h0a5,5,0,0,1-1.31,2.71l0,0-.14.12h0L736,349.44v3.3h19.74S757.22,260.51,756.59,223.08ZM732.53,264.5a6.07,6.07,0,0,1-6.37,2.58L708.65,293.5s0,0-.06.08l-.25.38,0,0a5.12,5.12,0,0,1-2.59,1.53v0l-.18,0h0l-3.74.56.08-4.49,3-.46,7.77-11.72-.22-31.57a6.08,6.08,0,1,1,4.42,0l.1,25.13,5.5-8.3a6.09,6.09,0,1,1,10.06-.13Z" transform="translate(-25.26 -57)"/><path class="cls-2" d="M748.84,301.8a2,2,0,1,0-2,2A2,2,0,0,0,748.84,301.8Z" transform="translate(-25.26 -57)"/><circle class="cls-2" cx="715.45" cy="132.8" r="2.01"/><path class="cls-1" d="M1183,273s-1-38,0-42c0,0-1-13,8-39a69.73,69.73,0,0,1,24-32,71.86,71.86,0,0,1,28-10s17-3,29,0c0,0,15,2,24,9,0,0,17,11,23,29,0,0,6,15,6,26,0,0,1,7,1,10h5s2,0,0,2l-15,10-15-9s-4-2,0-3h4s0-17-3-22-4-19-24-29c0,0-29-13-55,8,0,0-14,9-18,48,0,0-1,43,0,58,0,0,3,31,16,44,0,0,24,25,64,7,0,0,14-6,19-30l1-13h-5s-2,0,0-2l14-9,17,10s1,1,0,1h-5s-1,15-3,21c0,0-6,19-10,22,0,0-10,13-20,18,0,0-19,12-47,8,0,0-30-3-45-24,0,0-13-16-17-47Z" transform="translate(-25.26 -57)"/><path class="cls-1" d="M1009,153l67,208-10,31s-10,42-46,31v20s23,10,42-7c0,0,15-6,32-70l65-213h-24l-50,173-51-172Z" transform="translate(-25.26 -57)"/><rect class="cls-1" x="1347.74" y="9" width="23" height="296"/><path class="cls-1" d="M1589,260V239s-2-38-7-45c0,0-7-21-18-29,0,0-17-17-50-15,0,0-20-2-41,16,0,0-19,15-25,44a89.5,89.5,0,0,0-4,25v46s1,17,4,27c0,0,5,18,10,24,0,0,6,12,21,22,0,0,11,9,33,11,0,0,33,5,57-12,0,0,13-10,16-16l-11-15s-6,8-11,11a68.25,68.25,0,0,1-40,13s-30,0-43-20c0,0-14-16-15-50V260Zm-122-41c1-7,6-19,6-19,6-15,20-24,20-24,20-11,40-4,40-4a37.78,37.78,0,0,1,26,22c8,14,8,46,8,46H1465Z" transform="translate(-25.26 -57)"/></svg>